<svg width="900" height="260" viewBox="0 0 900 260" fill="none" xmlns="http://www.w3.org/2000/svg" role="img" aria-labelledby="title desc">
  <title id="title">DevMind logo</title>
  <desc id="desc">Premium DevMind AI logo with a neural diamond mark.</desc>
  <defs>
    <linearGradient id="g1" x1="45" y1="28" x2="224" y2="220" gradientUnits="userSpaceOnUse">
      <stop stop-color="#FFFFFF"/>
      <stop offset="0.28" stop-color="#00E5FF"/>
      <stop offset="0.62" stop-color="#8B5CF6"/>
      <stop offset="1" stop-color="#22C55E"/>
    </linearGradient>
    <linearGradient id="g2" x1="285" y1="74" x2="686" y2="195" gradientUnits="userSpaceOnUse">
      <stop stop-color="#F8FAFC"/>
      <stop offset="0.52" stop-color="#C7D2FE"/>
      <stop offset="1" stop-color="#67E8F9"/>
    </linearGradient>
    <filter id="glow" x="-30%" y="-30%" width="160%" height="160%" color-interpolation-filters="sRGB">
      <feGaussianBlur stdDeviation="10" result="blur"/>
      <feColorMatrix in="blur" type="matrix" values="0 0 0 0 0.0 0 0 0 0 0.9 0 0 0 0 1 0 0 0 .55 0"/>
      <feMerge><feMergeNode/><feMergeNode in="SourceGraphic"/></feMerge>
    </filter>
  </defs>
  <rect width="900" height="260" rx="46" fill="#050711"/>
  <rect x="16" y="16" width="868" height="228" rx="36" fill="white" fill-opacity="0.04" stroke="white" stroke-opacity="0.12"/>
  <g filter="url(#glow)">
    <path d="M133 35L223 88V172L133 225L43 172V88L133 35Z" fill="url(#g1)"/>
    <path d="M133 63L197 100V160L133 197L69 160V100L133 63Z" fill="#050711" fill-opacity="0.82"/>
    <path d="M93 104L133 81L173 104V157L133 180L93 157V104Z" stroke="white" stroke-opacity="0.72" stroke-width="8" stroke-linejoin="round"/>
    <circle cx="93" cy="104" r="8" fill="#00E5FF"/>
    <circle cx="173" cy="104" r="8" fill="#8B5CF6"/>
    <circle cx="133" cy="180" r="8" fill="#22C55E"/>
    <path d="M93 104L133 130L173 104M133 130V180" stroke="white" stroke-opacity="0.46" stroke-width="6" stroke-linecap="round"/>
  </g>
  <text x="282" y="126" fill="url(#g2)" font-family="Inter, Arial, sans-serif" font-size="74" font-weight="900" letter-spacing="-5">DevMind</text>
  <text x="286" y="170" fill="#AAB3D4" font-family="Inter, Arial, sans-serif" font-size="25" font-weight="700" letter-spacing="5">AI • CLI • IDE</text>
  <path d="M714 84H812C830 84 845 99 845 117V143C845 161 830 176 812 176H714" stroke="#00E5FF" stroke-opacity="0.72" stroke-width="5" stroke-linecap="round"/>
  <path d="M744 112L775 130L744 148" stroke="#FFFFFF" stroke-opacity="0.9" stroke-width="7" stroke-linecap="round" stroke-linejoin="round"/>
</svg>